<svg version="1.1" xmlns="http://www.w3.org/2000/svg" viewBox="0 0 1593.2318401098746 919.4067970410324" width="1593.2318401098746" height="919.4067970410324">
  <!-- svg-source:excalidraw -->
  
  <defs>
    <style class="style-fonts">
      @font-face {
        font-family: "Virgil";
        src: url("https://excalidraw.com/Virgil.woff2");
      }
      @font-face {
        font-family: "Cascadia";
        src: url("https://excalidraw.com/Cascadia.woff2");
      }
    </style>
  </defs>
  <rect x="0" y="0" width="1593.2318401098746" height="919.4067970410324" fill="#ffffff"></rect><g stroke-linecap="round" transform="translate(10 211.49046367990377) rotate(0 313.91636900751655 348.9581666805643)"><path d="M32 0 M32 0 C169.65 0, 307.3 0, 595.83 0 M32 0 C240.41 0, 448.82 0, 595.83 0 M595.83 0 C617.17 0, 627.83 10.67, 627.83 32 M595.83 0 C617.17 0, 627.83 10.67, 627.83 32 M627.83 32 C627.83 262.35, 627.83 492.69, 627.83 665.92 M627.83 32 C627.83 265.23, 627.83 498.45, 627.83 665.92 M627.83 665.92 C627.83 687.25, 617.17 697.92, 595.83 697.92 M627.83 665.92 C627.83 687.25, 617.17 697.92, 595.83 697.92 M595.83 697.92 C409.97 697.92, 224.11 697.92, 32 697.92 M595.83 697.92 C470.65 697.92, 345.47 697.92, 32 697.92 M32 697.92 C10.67 697.92, 0 687.25, 0 665.92 M32 697.92 C10.67 697.92, 0 687.25, 0 665.92 M0 665.92 C0 500.78, 0 335.64, 0 32 M0 665.92 C0 479.97, 0 294.02, 0 32 M0 32 C0 10.67, 10.67 0, 32 0 M0 32 C0 10.67, 10.67 0, 32 0" stroke="#000000" stroke-width="1" fill="none"></path></g><g transform="translate(48.69198072433937 253.3782308285663) rotate(0 172.5 17.5)"><text x="0" y="25" font-family="Virgil, Segoe UI Emoji" font-size="28px" fill="#000000" text-anchor="start" style="white-space: pre;" direction="ltr">Fileverse Portal Registry</text></g><g stroke-linecap="round" transform="translate(966.3496721352712 10) rotate(0 304.4258805422287 96.36496622798404)"><path d="M32 0 M32 0 C237.33 0, 442.66 0, 576.85 0 M32 0 C159.91 0, 287.81 0, 576.85 0 M576.85 0 C598.19 0, 608.85 10.67, 608.85 32 M576.85 0 C598.19 0, 608.85 10.67, 608.85 32 M608.85 32 C608.85 68.01, 608.85 104.01, 608.85 160.73 M608.85 32 C608.85 61.14, 608.85 90.29, 608.85 160.73 M608.85 160.73 C608.85 182.06, 598.19 192.73, 576.85 192.73 M608.85 160.73 C608.85 182.06, 598.19 192.73, 576.85 192.73 M576.85 192.73 C378.2 192.73, 179.55 192.73, 32 192.73 M576.85 192.73 C366.22 192.73, 155.58 192.73, 32 192.73 M32 192.73 C10.67 192.73, 0 182.06, 0 160.73 M32 192.73 C10.67 192.73, 0 182.06, 0 160.73 M0 160.73 C0 132.21, 0 103.69, 0 32 M0 160.73 C0 122.77, 0 84.8, 0 32 M0 32 C0 10.67, 10.67 0, 32 0 M0 32 C0 10.67, 10.67 0, 32 0" stroke="#000000" stroke-width="1" fill="none"></path></g><g transform="translate(1001.3915185436126 31.08168128698162) rotate(0 132 17.5)"><text x="0" y="25" font-family="Virgil, Segoe UI Emoji" font-size="28px" fill="#000000" text-anchor="start" style="white-space: pre;" direction="ltr">Fileverse Portal #1</text></g><g mask="url(#mask-xgzBquy7RflJwSmsvp6Ts)" stroke-linecap="round"><g transform="translate(642.635971854681 336.444693340738) rotate(0 160.05566321700462 -109.81688272649262)"><path d="M0 0 C53.35 -36.61, 266.76 -183.03, 320.11 -219.63 M0 0 C53.35 -36.61, 266.76 -183.03, 320.11 -219.63" stroke="#000000" stroke-width="1" fill="none"></path></g><g transform="translate(642.635971854681 336.444693340738) rotate(0 160.05566321700462 -109.81688272649262)"><path d="M302.67 -195.22 C307.01 -201.3, 311.35 -207.38, 320.11 -219.63 M302.67 -195.22 C308.92 -203.97, 315.17 -212.72, 320.11 -219.63" stroke="#000000" stroke-width="1" fill="none"></path></g><g transform="translate(642.635971854681 336.444693340738) rotate(0 160.05566321700462 -109.81688272649262)"><path d="M291.06 -212.15 C298.29 -214.01, 305.52 -215.87, 320.11 -219.63 M291.06 -212.15 C301.47 -214.83, 311.89 -217.51, 320.11 -219.63" stroke="#000000" stroke-width="1" fill="none"></path></g></g><mask id="mask-xgzBquy7RflJwSmsvp6Ts"><rect x="0" y="0" fill="#fff" width="1062.7472982886902" height="656.0784587937233"></rect><rect x="774.1916350716856" y="209.1278106142454" fill="#000" width="57" height="35" opacity="1"></rect></mask><g transform="translate(774.1916350716856 209.1278106142454) rotate(0 28.5 17.5)"><text x="28.5" y="24" font-family="Virgil, Segoe UI Emoji" font-size="28px" fill="#000000" text-anchor="middle" style="white-space: pre;" direction="ltr">Mint</text></g><g stroke-linecap="round" transform="translate(965.6197566670235 392.53985710541383) rotate(0 308.8060417214256 159.87830588092402)"><path d="M32 0 M32 0 C220.19 0, 408.38 0, 585.61 0 M32 0 C150.22 0, 268.44 0, 585.61 0 M585.61 0 C606.95 0, 617.61 10.67, 617.61 32 M585.61 0 C606.95 0, 617.61 10.67, 617.61 32 M617.61 32 C617.61 104.72, 617.61 177.44, 617.61 287.76 M617.61 32 C617.61 100.21, 617.61 168.41, 617.61 287.76 M617.61 287.76 C617.61 309.09, 606.95 319.76, 585.61 319.76 M617.61 287.76 C617.61 309.09, 606.95 319.76, 585.61 319.76 M585.61 319.76 C426.57 319.76, 267.52 319.76, 32 319.76 M585.61 319.76 C447.69 319.76, 309.77 319.76, 32 319.76 M32 319.76 C10.67 319.76, 0 309.09, 0 287.76 M32 319.76 C10.67 319.76, 0 309.09, 0 287.76 M0 287.76 C0 213.26, 0 138.76, 0 32 M0 287.76 C0 230.49, 0 173.22, 0 32 M0 32 C0 10.67, 10.67 0, 32 0 M0 32 C0 10.67, 10.67 0, 32 0" stroke="#000000" stroke-width="1" fill="none"></path></g><g mask="url(#mask--UWeMCm4o1aa2yUx0tlhl)" stroke-linecap="round"><g transform="translate(657.8724722607476 420.31126585565653) rotate(0 146.92831164792733 18.704700996908286)"><path d="M0 0 C48.98 6.23, 244.88 31.17, 293.86 37.41 M0 0 C48.98 6.23, 244.88 31.17, 293.86 37.41" stroke="#000000" stroke-width="1" fill="none"></path></g><g transform="translate(657.8724722607476 420.31126585565653) rotate(0 146.92831164792733 18.704700996908286)"><path d="M264.6 44.03 C273.17 42.09, 281.75 40.15, 293.86 37.41 M264.6 44.03 C275.38 41.59, 286.15 39.15, 293.86 37.41" stroke="#000000" stroke-width="1" fill="none"></path></g><g transform="translate(657.8724722607476 420.31126585565653) rotate(0 146.92831164792733 18.704700996908286)"><path d="M267.19 23.67 C275 27.7, 282.82 31.72, 293.86 37.41 M267.19 23.67 C277.01 28.73, 286.84 33.79, 293.86 37.41" stroke="#000000" stroke-width="1" fill="none"></path></g></g><mask id="mask--UWeMCm4o1aa2yUx0tlhl"><rect x="0" y="0" fill="#fff" width="1051.7290955566023" height="557.7206678494731"></rect><rect x="776.3007839086749" y="421.51596685256663" fill="#000" width="57" height="35" opacity="1"></rect></mask><g transform="translate(776.3007839086749 421.51596685256663) rotate(0 28.5 17.49999999999818)"><text x="28.5" y="24" font-family="Virgil, Segoe UI Emoji" font-size="28px" fill="#000000" text-anchor="middle" style="white-space: pre;" direction="ltr">Mint</text></g><g transform="translate(46.86683002012796 374.8535440978412) rotate(0 293.5 35)"><text x="0" y="25" font-family="Virgil, Segoe UI Emoji" font-size="28px" fill="#000000" text-anchor="start" style="white-space: pre;" direction="ltr">Registry Contracts with structure similar </text><text x="0" y="60" font-family="Virgil, Segoe UI Emoji" font-size="28px" fill="#000000" text-anchor="start" style="white-space: pre;" direction="ltr">to how NFTs are minted</text></g><g transform="translate(48.692036421824014 519.7660764932734) rotate(0 263 35)"><text x="0" y="25" font-family="Virgil, Segoe UI Emoji" font-size="28px" fill="#000000" text-anchor="start" style="white-space: pre;" direction="ltr">All the contracts deployed by registry</text><text x="0" y="60" font-family="Virgil, Segoe UI Emoji" font-size="28px" fill="#000000" text-anchor="start" style="white-space: pre;" direction="ltr">are done by EOA wallets</text></g><g transform="translate(1001.7566712189109 99.26419808054561) rotate(0 265 35)"><text x="0" y="25" font-family="Virgil, Segoe UI Emoji" font-size="28px" fill="#000000" text-anchor="start" style="white-space: pre;" direction="ltr">File: #1, #2, #3</text><text x="0" y="60" font-family="Virgil, Segoe UI Emoji" font-size="28px" fill="#000000" text-anchor="start" style="white-space: pre;" direction="ltr">Collaborator: Address #1, Address #2</text></g><g transform="translate(984.4219745171686 406.5968171901586) rotate(0 138.5 17.5)"><text x="0" y="25" font-family="Virgil, Segoe UI Emoji" font-size="28px" fill="#000000" text-anchor="start" style="white-space: pre;" direction="ltr">Fileverse Portal #2</text></g><g transform="translate(984.7871271924705 476.2394434075977) rotate(0 265 35)"><text x="0" y="25" font-family="Virgil, Segoe UI Emoji" font-size="28px" fill="#000000" text-anchor="start" style="white-space: pre;" direction="ltr">File: #1, #2, #3</text><text x="0" y="60" font-family="Virgil, Segoe UI Emoji" font-size="28px" fill="#000000" text-anchor="start" style="white-space: pre;" direction="ltr">Collaborator: Address #1, Address #2</text></g><g transform="translate(991.1711424588066 598.077773016601) rotate(0 275 35)"><text x="0" y="25" font-family="Virgil, Segoe UI Emoji" font-size="28px" fill="#000000" text-anchor="start" style="white-space: pre;" direction="ltr">Collaborators Storage Pattern is </text><text x="0" y="60" font-family="Virgil, Segoe UI Emoji" font-size="28px" fill="#000000" text-anchor="start" style="white-space: pre;" direction="ltr">inspired by how Safe Owners are stored</text></g></svg>